:SAMPLES-PER-SECOND 30
:FULLY-SPECIFIED
:DEGREES
401
root  -2.44783 40.9044 1.2995 174.945 -83.2314 -176.87
RightUpLeg  4.13531 -1.21598 -1.89992
RightLeg  -0.368587 -13.2246 -0.442698
RightFoot  -0.4767 -0.410342 4.27784
RightToes  -3.13006e-008 1.75238e-005 3.56266e-009
Spine  -6.9365 -0.827457 -4.70016
Spine1  14.5585 -2.00165 4.74197
HEad  -12.4207 5.11029 11.4262
LeftShoulder1  1.82492 -3.86916 -18.167
LeftArm  -53.4386 -24.4348 -24.7658
LeftForeArm  67.2698 -69.1529 -21.8528
LeftHand  -0.30421 1.64359 9.26217
RightShoulder  4.26255 8.26929 30.287
RightArm  -9.78729 -13.6822 35.9222
RightForeArm  113.065 79.3743 110.444
RightHand  -0.674948 7.87039 -6.26474
LeftUpLeg  4.97916 1.69539 1.69114
LeftLeg  -0.419512 18.5603 -0.81046
LeftFoot  -1.78215 0.186097 -2.1433
LeftToes  4.76866e-008 1.46233e-008 1.30548e-009
402
root  -2.45713 40.904 1.33103 174.664 -82.704 -176.597
RightUpLeg  4.19079 -1.25376 -1.93075
RightLeg  -0.586013 -12.6598 -0.333082
RightFoot  -0.379439 -0.413109 4.27492
RightToes  -3.13006e-008 1.75238e-005 3.56266e-009
Spine  -7.08857 -0.637033 -4.92179
Spine1  14.6834 -1.95686 5.31185
HEad  -12.1475 4.7872 11.5984
LeftShoulder1  1.75421 -3.71738 -17.6711
LeftArm  -50.796 -22.4516 -24.989
LeftForeArm  70.3762 -70.1846 -22.9476
LeftHand  -0.128799 0.813527 3.19528
RightShoulder  4.26052 8.14347 30.6667
RightArm  -8.97107 -15.0185 35.1611
RightForeArm  112.228 79.4303 109.594
RightHand  -0.712112 7.59369 -6.71283
LeftUpLeg  5.10751 1.65097 1.64414
LeftLeg  -0.524715 19.1733 -0.774225
LeftFoot  -1.81976 0.18674 -2.16774
LeftToes  4.76866e-008 1.46233e-008 1.30548e-009
403
root  -2.46144 40.8977 1.37565 174.243 -82.1129 -176.351
RightUpLeg  4.29565 -1.39171 -2.02088
RightLeg  -0.569155 -11.9121 -0.213093
RightFoot  -0.38441 -0.408411 4.18563
RightToes  -3.13006e-008 1.75238e-005 3.56266e-009
Spine  -7.10469 -0.37805 -4.95795
Spine1  14.8208 -1.82546 5.72873
HEad  -11.6554 5.32215 11.3568
LeftShoulder1  1.79043 -3.86279 -17.6786
LeftArm  -48.5185 -22.2174 -23.5071
LeftForeArm  69.9689 -69.8814 -22.5966
LeftHand  0.503483 -1.21692 -8.78521
RightShoulder  4.19856 8.07866 30.3305
RightArm  -8.78885 -16.5297 35.5236
RightForeArm  110.616 79.5778 107.504
RightHand  -0.704774 8.00156 -6.46085
LeftUpLeg  5.37122 1.67695 1.60861
LeftLeg  -0.511624 19.7406 -0.734816
LeftFoot  -1.98217 0.184237 -2.14221
LeftToes  4.76866e-008 1.46233e-008 1.30548e-009
404
root  -2.44098 40.8937 1.4011 173.432 -82.1699 -175.83
RightUpLeg  4.58055 -1.35438 -1.96262
RightLeg  -0.548965 -11.9929 -0.278314
RightFoot  -0.36928 -0.414923 4.28401
RightToes  -3.13006e-008 1.75238e-005 3.56266e-009
Spine  -6.76158 -0.284121 -5.14587
Spine1  14.825 -1.86032 6.14687
HEad  -11.4524 4.80868 11.866
LeftShoulder1  1.70136 -3.62496 -17.2121
LeftArm  -46.5691 -25.2564 -22.4094
LeftForeArm  63.9435 -67.6781 -20.3354
LeftHand  1.6869 -3.53622 -21.3539
RightShoulder  4.06496 7.86908 29.8165
RightArm  -8.63596 -17.8605 36.2882
RightForeArm  108.112 79.6897 105.186
RightHand  -0.648351 7.72386 -6.09159
LeftUpLeg  5.54872 1.78395 1.68393
LeftLeg  -0.283738 19.5484 -0.690183
LeftFoot  -2.10481 0.178423 -2.06413
LeftToes  4.76866e-008 1.46233e-008 1.30548e-009
405
root  -2.39722 40.892 1.39235 172.718 -82.9999 -175.294
RightUpLeg  4.84411 -1.31728 -1.88126
RightLeg  -0.595878 -12.8718 -0.338967
RightFoot  -0.357822 -0.418925 4.3513
RightToes  -3.13006e-008 1.75238e-005 3.56266e-009
Spine  -6.40731 -0.30043 -5.90506
Spine1  14.6526 -2.06791 6.97624
HEad  -11.3267 4.39489 12.9121
LeftShoulder1  1.79265 -4.14754 -16.7342
LeftArm  -45.0822 -29.7046 -20.2091
LeftForeArm  61.0168 -66.5934 -19.417
LeftHand  2.28218 -4.97719 -24.9066
RightShoulder  4.00284 7.8273 29.3917
RightArm  -8.7955 -20.0378 36.6971
RightForeArm  109.223 79.6579 106.063
RightHand  -0.637235 7.44906 -6.10728
LeftUpLeg  5.45128 1.86647 1.78609
LeftLeg  -0.0169398 18.62 -0.664102
LeftFoot  -2.0934 0.168812 -1.92591
LeftToes  4.76866e-008 1.46233e-008 1.30548e-009
